<?xml version="1.0" encoding="UTF-8" standalone="no"?>
<!-- Created with Inkscape (http://www.inkscape.org/) -->

<svg
   width="16.933331mm"
   height="16.933327mm"
   viewBox="0 0 16.933331 16.933327"
   version="1.1"
   id="svg5"
   xml:space="preserve"
   xmlns="http://www.w3.org/2000/svg"
   xmlns:svg="http://www.w3.org/2000/svg"><defs
     id="defs2" /><g
     id="layer1"
     transform="translate(-54.657255,-109.6037)"><path
       id="rect498"
       style="font-variation-settings:normal;opacity:1;fill:#4d4d4d;fill-opacity:1;stroke:#636363;stroke-width:0.264583;stroke-linecap:butt;stroke-linejoin:miter;stroke-miterlimit:4;stroke-dasharray:none;stroke-dashoffset:0;stroke-opacity:1;stop-color:#000000;stop-opacity:1"
       d="m 62.906025,111.1912 h 7.09706 l -2.957109,13.75833 h -7.097058 z" /><path
       id="path766"
       style="fill:#e5e5e5;fill-opacity:1;stroke-width:0.79375"
       d="m 61.607622,121.21115 h 4.944134 c 0.389425,0 0.702933,0.23601 0.702933,0.52917 0,0.29316 -0.313508,0.52917 -0.702933,0.52917 h -4.944134 c -0.389425,0 -0.702933,-0.23601 -0.702933,-0.52917 0,-0.29316 0.313508,-0.52917 0.702933,-0.52917 z" /><path
       id="path768"
       style="fill:#e5e5e5;fill-opacity:1;stroke-width:0.586983"
       d="m 61.172712,122.4892 h 3.090084 c 0.24339,0 0.439333,0.20651 0.439333,0.46302 0,0.25652 -0.195943,0.46302 -0.439333,0.46302 h -3.090084 c -0.24339,0 -0.439333,-0.2065 -0.439333,-0.46302 0,-0.25651 0.195943,-0.46302 0.439333,-0.46302 z" /><path
       id="path770"
       style="fill:#e5e5e5;fill-opacity:1;stroke-width:0.443721"
       d="m 60.829395,123.71614 h 2.060057 c 0.162259,0 0.292888,0.17701 0.292888,0.39687 0,0.21988 -0.130629,0.39688 -0.292888,0.39688 h -2.060057 c -0.16226,0 -0.292888,-0.177 -0.292888,-0.39688 0,-0.21986 0.130628,-0.39687 0.292888,-0.39687 z" /><path
       id="path772"
       style="fill:#e5e5e5;fill-opacity:1;stroke-width:0.79375"
       d="m 62.63007,116.71238 h 4.944134 c 0.389425,0 0.702933,0.23601 0.702933,0.52917 0,0.29316 -0.313508,0.52917 -0.702933,0.52917 H 62.63007 c -0.389425,0 -0.702933,-0.23601 -0.702933,-0.52917 0,-0.29316 0.313508,-0.52917 0.702933,-0.52917 z" /><path
       id="path774"
       style="fill:#e5e5e5;fill-opacity:1;stroke-width:0.586984"
       d="m 62.19516,117.99043 h 3.090084 c 0.24339,0 0.439333,0.20651 0.439333,0.46302 0,0.25651 -0.195943,0.46302 -0.439333,0.46302 H 62.19516 c -0.24339,0 -0.439333,-0.20651 -0.439333,-0.46302 0,-0.25651 0.195943,-0.46302 0.439333,-0.46302 z" /><path
       id="path776"
       style="fill:#e5e5e5;fill-opacity:1;stroke-width:0.443719"
       d="M 61.851843,119.21737 H 63.9119 c 0.162259,0 0.292888,0.17701 0.292888,0.39688 0,0.21986 -0.130629,0.39687 -0.292888,0.39687 h -2.060057 c -0.16226,0 -0.292888,-0.17701 -0.292888,-0.39687 0,-0.21987 0.130628,-0.39688 0.292888,-0.39688 z" /><path
       id="path778"
       style="fill:#e5e5e5;fill-opacity:1;stroke-width:0.79375"
       d="m 63.550273,112.26474 h 4.944134 c 0.389425,0 0.702933,0.23601 0.702933,0.52917 0,0.29316 -0.313508,0.52917 -0.702933,0.52917 h -4.944134 c -0.389425,0 -0.702933,-0.23601 -0.702933,-0.52917 0,-0.29316 0.313508,-0.52917 0.702933,-0.52917 z" /><path
       id="path780"
       style="fill:#e5e5e5;fill-opacity:1;stroke-width:0.586984"
       d="m 63.115363,113.54279 h 3.090084 c 0.24339,0 0.439333,0.20651 0.439333,0.46302 0,0.25651 -0.195943,0.46302 -0.439333,0.46302 h -3.090084 c -0.24339,0 -0.439333,-0.20651 -0.439333,-0.46302 0,-0.25651 0.195943,-0.46302 0.439333,-0.46302 z" /><path
       id="path782"
       style="fill:#e5e5e5;fill-opacity:1;stroke-width:0.443718"
       d="m 62.772046,114.76973 h 2.060057 c 0.162259,0 0.292888,0.17701 0.292888,0.39687 0,0.21987 -0.130629,0.39688 -0.292888,0.39688 h -2.060057 c -0.16226,0 -0.292888,-0.17701 -0.292888,-0.39688 0,-0.21986 0.130628,-0.39687 0.292888,-0.39687 z" /><path
       id="path9004"
       style="font-variation-settings:normal;opacity:1;fill:#ffffff;fill-opacity:1;stroke:#a5a5a5;stroke-width:0.264583;stroke-linecap:butt;stroke-linejoin:miter;stroke-miterlimit:4;stroke-dasharray:none;stroke-dashoffset:0;stroke-opacity:1;stop-color:#000000;stop-opacity:1"
       d="m 60.094523,110.80771 c -2.244787,-4e-5 -4.064532,1.16168 -4.064351,2.59467 2.6e-4,1.43279 1.819876,2.5942 4.064351,2.59416 0.572536,-2.7e-4 1.138523,-0.0777 1.660881,-0.22738 l 2.633442,2.45133 -1.275386,-3.08333 c 0.671942,-0.47605 1.044144,-1.09399 1.044898,-1.73478 1.81e-4,-1.43286 -1.819249,-2.59453 -4.063835,-2.59467 z" /><path
       id="path9789"
       style="fill:#000000;fill-opacity:1;stroke-width:0.652807"
       d="m 58.246595,112.03477 h 4.066227 c 0.320277,0 0.578117,0.1941 0.578117,0.43521 0,0.2411 -0.25784,0.43521 -0.578117,0.43521 h -4.066227 c -0.320276,0 -0.578116,-0.19411 -0.578116,-0.43521 0,-0.24111 0.25784,-0.43521 0.578116,-0.43521 z" /><path
       id="path9791"
       style="fill:#000000;fill-opacity:1;stroke-width:0.482756"
       d="m 57.88891,113.08588 h 2.541392 c 0.200173,0 0.361323,0.16984 0.361323,0.38081 0,0.21096 -0.16115,0.3808 -0.361323,0.3808 H 57.88891 c -0.200172,0 -0.361323,-0.16984 -0.361323,-0.3808 0,-0.21097 0.161151,-0.38081 0.361323,-0.38081 z" /><path
       id="path9793"
       style="fill:#000000;fill-opacity:1;stroke-width:0.36493"
       d="m 57.606554,114.09496 h 1.694263 c 0.133447,0 0.240881,0.14558 0.240881,0.32641 0,0.18082 -0.107434,0.3264 -0.240881,0.3264 h -1.694263 c -0.133448,0 -0.240881,-0.14558 -0.240881,-0.3264 0,-0.18083 0.107433,-0.32641 0.240881,-0.32641 z" /><path
       id="path913"
       style="font-variation-settings:normal;opacity:1;fill:none;fill-opacity:1;stroke:#636363;stroke-width:0.264583;stroke-linecap:butt;stroke-linejoin:miter;stroke-miterlimit:4;stroke-dasharray:none;stroke-dashoffset:0;stroke-opacity:1;stop-color:#000000;stop-opacity:1"
       d="m 61.847514,110.13287 -0.05788,0.31161 c -0.505866,-0.10218 -1.069968,-0.16136 -1.694987,-0.16589 -2.409854,-0.10724 -4.702731,1.19631 -4.710742,3.12389 -0.008,1.92758 2.032733,3.09944 4.974292,3.13981 0.09938,0.001 0.197758,0.002 0.295072,0.002 l -1.762683,9.46403 h 9.213908 l 2.956926,-15.875 z" /></g></svg>
