<?xml version="1.0" encoding="UTF-8" standalone="no"?>
<!-- Created with Inkscape (http://www.inkscape.org/) -->

<svg
   width="16.933331mm"
   height="16.933327mm"
   viewBox="0 0 16.933331 16.933327"
   version="1.1"
   id="svg5"
   xml:space="preserve"
   xmlns="http://www.w3.org/2000/svg"
   xmlns:svg="http://www.w3.org/2000/svg"><defs
     id="defs2" /><g
     id="layer1"
     transform="translate(-54.657255,-109.6037)"><path
       id="rect498"
       style="font-variation-settings:normal;opacity:1;fill:#ffffff;fill-opacity:1;stroke:none;stroke-width:0.264583;stroke-linecap:butt;stroke-linejoin:miter;stroke-miterlimit:4;stroke-dasharray:none;stroke-dashoffset:0;stroke-opacity:1;stop-color:#000000;stop-opacity:1"
       d="m 62.905847,111.1912 -2.956925,13.75833 h 7.097241 l 2.956925,-13.75833 z m 0.644405,1.07332 h 4.944401 c 0.389425,0 0.7028,0.23601 0.7028,0.52917 0,0.29316 -0.313375,0.52916 -0.7028,0.52916 h -4.944401 c -0.389424,0 -0.702799,-0.236 -0.702799,-0.52916 0,-0.29316 0.313375,-0.52917 0.702799,-0.52917 z m -0.435115,1.27847 h 3.09025 c 0.24339,0 0.43925,0.20652 0.43925,0.46303 0,0.25651 -0.19586,0.46302 -0.43925,0.46302 h -3.09025 c -0.24339,0 -0.43925,-0.20651 -0.43925,-0.46302 0,-0.25651 0.19586,-0.46303 0.43925,-0.46303 z m -0.343132,1.2268 h 2.06034 c 0.162258,0 0.292488,0.17702 0.292488,0.39688 0,0.21987 -0.13023,0.39687 -0.292488,0.39687 h -2.06034 c -0.16226,0 -0.293005,-0.177 -0.293005,-0.39687 0,-0.21986 0.130745,-0.39688 0.293005,-0.39688 z m -0.14211,1.94252 h 4.944401 c 0.389425,0 0.702799,0.23601 0.702799,0.52917 0,0.29316 -0.313374,0.52916 -0.702799,0.52916 h -4.944401 c -0.389425,0 -0.7028,-0.236 -0.7028,-0.52916 0,-0.29316 0.313375,-0.52917 0.7028,-0.52917 z m -0.434599,1.27796 h 3.089734 c 0.24339,0 0.439767,0.20651 0.439767,0.46302 0,0.25651 -0.196377,0.46302 -0.439767,0.46302 h -3.089734 c -0.24339,0 -0.439249,-0.20651 -0.439249,-0.46302 0,-0.25651 0.195859,-0.46302 0.439249,-0.46302 z m -0.343648,1.22731 h 2.060339 c 0.162259,0 0.293006,0.17701 0.293006,0.39688 0,0.21986 -0.130747,0.39687 -0.293006,0.39687 h -2.060339 c -0.16226,0 -0.292489,-0.17701 -0.292489,-0.39687 0,-0.21987 0.130229,-0.39688 0.292489,-0.39688 z m -0.243913,1.99368 h 4.943884 c 0.389425,0 0.703317,0.23601 0.703317,0.52917 0,0.29316 -0.313892,0.52916 -0.703317,0.52916 h -4.943884 c -0.389424,0 -0.702799,-0.236 -0.702799,-0.52916 0,-0.29316 0.313375,-0.52917 0.702799,-0.52917 z m -0.435115,1.27796 h 3.09025 c 0.24339,0 0.43925,0.20651 0.43925,0.46302 0,0.25652 -0.19586,0.46302 -0.43925,0.46302 h -3.09025 c -0.24339,0 -0.43925,-0.2065 -0.43925,-0.46302 0,-0.25651 0.19586,-0.46302 0.43925,-0.46302 z m -0.343132,1.2268 h 2.059823 c 0.162259,0 0.293005,0.17701 0.293005,0.39687 0,0.21988 -0.130746,0.39688 -0.293005,0.39688 h -2.059823 c -0.16226,0 -0.293005,-0.177 -0.293005,-0.39688 0,-0.21986 0.130745,-0.39687 0.293005,-0.39687 z" /><path
       id="path9004"
       style="font-variation-settings:normal;opacity:0.4;fill:#ffffff;fill-opacity:1;stroke:none;stroke-width:0.264583;stroke-linecap:butt;stroke-linejoin:miter;stroke-miterlimit:4;stroke-dasharray:none;stroke-dashoffset:0;stroke-opacity:1;stop-color:#000000;stop-opacity:1"
       d="m 60.094649,110.80776 c -2.244785,-4e-5 -4.064532,1.16169 -4.064351,2.59467 2.6e-4,1.43279 1.819878,2.5942 4.064351,2.59416 0.572536,-2.7e-4 1.138523,-0.0777 1.660881,-0.22737 l 2.633431,2.45153 -1.275375,-3.08354 c 0.671942,-0.47605 1.044144,-1.09399 1.044898,-1.73478 1.81e-4,-1.43285 -1.819251,-2.59453 -4.063835,-2.59467 z m -1.847949,1.2268 h 4.065902 c 0.320276,0 0.578259,0.19452 0.578259,0.43563 0,0.2411 -0.257983,0.43512 -0.578259,0.43512 H 58.2467 c -0.320276,0 -0.578259,-0.19402 -0.578259,-0.43512 0,-0.24111 0.257983,-0.43563 0.578259,-0.43563 z m -0.357601,1.0511 h 2.541447 c 0.200173,0 0.361218,0.16988 0.361218,0.38085 0,0.21096 -0.161045,0.38086 -0.361218,0.38086 h -2.541447 c -0.200172,0 -0.361735,-0.1699 -0.361735,-0.38086 0,-0.21097 0.161563,-0.38085 0.361735,-0.38085 z m -0.28267,1.00924 h 1.69447 c 0.133447,0 0.240812,0.14576 0.240812,0.32659 0,0.18082 -0.107365,0.32608 -0.240812,0.32608 h -1.69447 c -0.133448,0 -0.240812,-0.14526 -0.240812,-0.32608 0,-0.18083 0.107364,-0.32659 0.240812,-0.32659 z" /><g
       style="fill:none"
       id="g1231"
       transform="matrix(0.26458333,0,0,0.26458333,62.763242,104.52895)"><path
         opacity="0.5"
         fill-rule="evenodd"
         clip-rule="evenodd"
         d="M 13.1398,8 C 12.6898,6.73 11.73,4.51001 10.8,4.51001 c -1.40001,0 -1.39001,1.28003 -2.00001,1.28003 H 7.09003 c -0.57,0 -0.52017,-1.28003 -1.92017,-1.28003 -0.94,0 -1.90984,2.21999 -2.33984,3.48999 -0.8,2.37 -0.88017,3.51 0.82983,3.51 1.92,0 1.85006,-2.17003 4.31006,-2.17003 2.45999,0 2.45999,2.17003 4.25999,2.17003 1.8,0 1.7699,-1.12 0.9099,-3.51 z M 6.99994,8 h -1 v 1 h -1 V 8 h -1 V 7 h 1 V 6 h 1 v 1 h 1 z M 10.4999,9.25 C 10.1538,9.25 9.81556,9.14737 9.52777,8.95508 9.23999,8.76279 9.0157,8.48945 8.88324,8.16968 8.75079,7.84991 8.71611,7.49804 8.78363,7.15857 8.85116,6.8191 9.01765,6.50732 9.26239,6.26257 9.50713,6.01783 9.81917,5.85109 10.1586,5.78357 c 0.3395,-0.06752 0.6912,-0.03284 1.011,0.09961 0.3198,0.13245 0.5931,0.35674 0.7854,0.64453 0.1923,0.28779 0.2949,0.62617 0.2949,0.97229 0,0.46413 -0.1842,0.90924 -0.5124,1.23743 C 11.4093,9.06562 10.9641,9.25 10.4999,9.25 Z m 0,-2.25 c -0.0988,0 -0.1956,0.02929 -0.2778,0.08423 -0.0822,0.05494 -0.1462,0.13312 -0.1841,0.22449 -0.0378,0.09136 -0.04783,0.19182 -0.0285,0.28881 0.0193,0.09699 0.067,0.18606 0.1369,0.25599 0.07,0.06992 0.1589,0.11754 0.2559,0.13684 0.097,0.01929 0.1977,0.0094 0.289,-0.02845 C 10.7827,7.92407 10.8608,7.86006 10.9157,7.77783 10.9707,7.69561 10.9999,7.59889 10.9999,7.5 10.9999,7.36739 10.9472,7.24025 10.8535,7.14648 10.7597,7.05272 10.6325,7 10.4999,7 Z"
         fill="#ffffff"
         id="path1219" /><path
         d="M 11.1416,2.67396 C 10.6352,2.66885 10.1366,2.80972 9.69638,3.08245 9.25615,3.35518 8.88989,3.75002 8.63484,4.22682 H 7.32798 C 7.0836,3.74077 6.72185,3.33694 6.28186,3.05907 5.84188,2.78121 5.34062,2.63994 4.83221,2.65058 3.10754,2.65058 1.89689,5.41779 1.17917,7.74131 0.461455,10.0648 0.215084,11.5244 0.922091,12.5986 1.18656,12.9499 1.52595,13.225 1.91067,13.4 c 0.38472,0.1751 0.80309,0.2447 1.2182,0.2027 0.55509,-0.0121 1.10083,-0.1588 1.59742,-0.4294 0.49658,-0.2707 0.93147,-0.6585 1.27338,-1.1353 0.22807,-0.3461 0.52911,-0.6275 0.87769,-0.8205 0.34859,-0.1931 0.73465,-0.292 1.12562,-0.2887 0.39598,0.0099 0.7843,0.1207 1.13399,0.3234 0.34969,0.2028 0.65093,0.4919 0.87983,0.8442 0.3386,0.4618 0.7647,0.8385 1.249,1.1045 0.4844,0.266 1.0157,0.4149 1.5577,0.4367 0.4262,0.0437 0.8554,-0.0283 1.2498,-0.2096 0.3944,-0.1814 0.7416,-0.4663 1.0103,-0.8294 C 15.8013,11.431 15.5121,9.92475 14.8158,7.76469 13.1768,2.68562 11.6451,2.67396 11.1416,2.67396 Z"
         stroke="#ffffff"
         id="path1221" /></g></g></svg>
